<svg width="117" height="132" viewBox="0 0 117 132" fill="none" xmlns="http://www.w3.org/2000/svg">
<path fill-rule="evenodd" clip-rule="evenodd" d="M46.1303 33.7428C48.2078 33.9348 51.6848 34.1484 53.8566 34.2175C57.0149 34.318 57.8056 34.4068 57.8056 34.6613C57.8056 35.223 56.9021 45.5857 56.7652 46.5937C56.6679 47.3092 56.5289 47.5664 56.2398 47.5664C55.9298 47.5664 55.7934 47.2282 55.5944 45.9654C54.7575 40.6505 50.0129 37.2841 43.3408 37.2706C36.9285 37.2577 32.1182 40.531 31.5741 45.2776C31.1831 48.6884 33.0374 51.0766 39.0976 54.9667C48.1558 60.7815 56.2192 66.0641 57.125 66.7776C59.4368 68.5981 61.0493 70.8757 62.0777 73.7736C62.6848 75.4843 62.7276 75.8379 62.7276 79.1524C62.7276 81.9132 62.6319 83.0535 62.2959 84.2931C59.7696 93.6131 51.7006 98.6 39.1479 98.5988C32.9133 98.5984 27.3258 97.4343 23.3008 95.2976C21.0298 94.0921 20.3076 93.3524 19.9996 91.9166C19.6386 90.2343 19.8943 85.4389 20.4685 83.1217C21.0912 80.6088 22.2649 78.008 22.7763 78.008C23.108 78.008 23.1905 78.3218 23.3026 80.0107C23.6996 85.9919 26.6896 90.5975 31.8222 93.1335C34.2061 94.3114 36.4361 94.782 39.7203 94.7998C43.6198 94.8209 46.2697 94.093 48.5766 92.3672C49.938 91.3489 50.6003 90.5426 51.5348 88.7655C52.1486 87.5987 52.1969 87.3226 52.1969 84.9889C52.1969 82.7408 52.1323 82.3364 51.5941 81.2124C50.8023 79.5584 49.2556 78.0464 46.5923 76.3229C45.3982 75.5502 40.4533 72.2825 35.6037 69.0611C25.5516 62.3846 24.4308 61.4201 22.7978 58.0434C21.4224 55.1993 21.1035 53.5337 21.2521 49.9697C21.3799 46.9057 21.536 46.0656 22.3794 43.9043C24.0792 39.5491 27.2123 36.5159 31.7863 34.7977C35.5254 33.3933 39.3247 33.1138 46.1303 33.7428ZM96.094 35.561C96.9999 35.4521 97.4103 35.3019 97.4103 35.0797C97.4103 34.8062 95.4862 34.7471 84.8765 34.6956L84.534 34.694L82.2577 34.6829C71.5241 34.6321 70.3193 34.6505 70.1846 35.0395C70.1676 35.0887 70.1677 35.1437 70.1678 35.2054L70.1678 35.2193C70.1678 35.6031 70.3333 35.6652 71.3697 35.6695C73.4058 35.678 75.4467 36.9142 76.4162 38.726L76.9212 39.6699V65.9916V92.3132L76.4263 93.2288C75.3917 95.1418 73.7384 96.2397 71.5471 96.4686C70.4075 96.5879 70.1678 96.6867 70.1678 97.0378C70.1678 97.4475 70.6687 97.4631 83.7891 97.4631C97.2576 97.4631 97.4103 97.4581 97.4103 97.0053C97.4103 96.6396 97.2576 96.5476 96.6507 96.5476C94.4743 96.5476 92.1882 95.1733 91.1555 93.2443L90.6569 92.3132V65.9916C90.6569 40.7599 90.6746 39.6368 91.0832 38.8689C92.1216 36.9172 93.7482 35.8435 96.094 35.561ZM39.9492 19.029C53.3946 11.2108 55.3083 10.1851 57.1436 9.81275C58.3226 9.57356 60.0539 9.72578 61.3488 10.1824C62.625 10.6326 66.01 12.4619 69.9389 14.8244C71.7646 15.9223 74.7006 17.6646 76.4634 18.6964C78.2261 19.7282 79.8229 20.6641 80.0117 20.7765C80.4865 21.0587 91.0459 27.1363 98.0971 31.1857C104.593 34.9163 106.275 36.1023 107.254 37.6459L107.282 37.6912C107.411 37.8943 107.527 38.0761 107.63 38.2646C108.514 39.8775 108.513 41.9761 108.5 62.0354L108.499 62.5583C108.485 84.8896 108.26 92.5213 107.576 93.8422C107.027 94.9044 105.642 96.3258 104.349 97.1555C103.696 97.5746 101.481 98.8808 99.427 100.058C97.3735 101.236 94.1996 103.074 92.3739 104.142C90.5482 105.211 88.5909 106.344 88.0243 106.659C85.3133 108.17 75.0486 114.195 68.2219 118.284C66.1604 119.518 61.9323 121.551 60.3571 122.064C58.6122 122.633 57.1859 122.439 54.7916 121.305C52.937 120.426 46.1438 116.72 39.8347 113.144C36.8266 111.439 14.6159 98.4803 13.5054 97.7819C10.7871 96.0731 9.39956 94.4899 8.77847 92.3899C8.34671 90.9294 8.35014 43.2277 8.78213 40.5855C9.35079 37.1087 10.4018 36.0419 16.9881 32.2562C19.4809 30.8234 23.5808 28.4647 26.099 27.0145C28.6172 25.5645 31.3472 23.9983 32.1656 23.5339C32.984 23.0695 36.4866 21.0422 39.9492 19.029Z" fill="url(#paint0_linear_1_6)"/>
<path fill-rule="evenodd" clip-rule="evenodd" d="M56.661 0.317278C54.3953 0.908256 51.5772 2.45116 31.4788 14.1041C29.6531 15.1625 27.7473 16.2558 27.2436 16.5335C26.74 16.8113 24.7312 17.966 22.7795 19.0999C20.8279 20.2338 16.7587 22.5842 13.7368 24.3233C5.42214 29.1081 4.74978 29.5171 3.37438 30.629C1.68854 31.9916 0.719031 33.7567 0.311309 36.2046C0.0617764 37.7031 0.00111009 43.7109 0.00111009 66.9071C0.00111009 68.7197 0.000798357 70.4233 0.000505278 72.0249C-0.00366323 94.8055 -0.00405747 96.9599 0.949967 98.5368C1.04961 98.7014 1.15966 98.8598 1.2812 99.0348C1.36298 99.1525 1.44997 99.2777 1.54249 99.4173C2.72834 101.207 3.90594 102.021 13.279 107.528C14.2863 108.119 16.6557 109.512 18.5443 110.623C26.6722 115.403 40.7456 123.493 44.6422 125.625C45.6495 126.176 47.0918 126.97 47.8472 127.389C48.6027 127.809 50.9044 128.989 52.9617 130.014C57.4503 132.248 58.1564 132.379 60.8431 131.478C64.1699 130.361 69.4236 127.595 75.891 123.556C76.8354 122.966 79.3078 121.504 81.3853 120.306C87.5165 116.771 98.2365 110.57 101.073 108.917C102.521 108.073 104.769 106.773 106.069 106.028C113.738 101.631 114.655 100.94 115.708 98.7698C116.376 97.391 116.405 97.1919 116.684 92.0843C117.115 84.1675 117.101 37.3878 116.666 35.6645C115.774 32.1253 114.266 30.6721 107.483 26.8113C105.28 25.5572 99.7683 22.3826 95.2355 19.7568C90.7027 17.1309 86.3244 14.6047 85.506 14.1428C84.6876 13.6809 83.3484 12.9144 82.53 12.4392C81.7115 11.9643 80.6814 11.3703 80.2407 11.1192C79.0924 10.4648 73.6015 7.18974 71.3125 5.79378C65.8427 2.45826 62.3783 0.717138 60.3603 0.289583C58.5123 -0.102037 58.2605 -0.0999767 56.661 0.317278ZM69.753 11.2295C65.3706 8.60264 62.2851 7 60.8939 6.62806C57.1798 5.63517 56.6624 5.84505 42.2385 14.1977C41.0423 14.8903 37.9518 16.6729 35.3706 18.1588C32.7894 19.6447 29.0808 21.7852 27.1292 22.9159C19.8284 27.145 14.8428 30.0145 13.6224 30.6899C10.8393 32.2299 8.34373 33.9025 7.64893 34.6936C6.28177 36.2507 5.84818 37.5862 5.61376 40.9636C5.35828 44.6436 5.33927 86.871 5.59109 91.0209C5.90175 96.1406 6.84173 97.3757 13.279 101.123C19.5386 104.766 21.1223 105.696 21.9783 106.228C23.1891 106.98 31.6533 111.886 38.2322 115.648C48.5956 121.575 54.9637 124.961 56.9643 125.608C57.9787 125.936 59.2838 125.791 61.191 125.137C62.5907 124.656 67.3247 122.326 69.0232 121.281C71.1339 119.982 78.6526 115.537 82.4155 113.364C84.556 112.127 88.8827 109.628 92.0305 107.809C95.1783 105.991 99.8141 103.32 102.332 101.875C110.589 97.1356 110.8 96.8682 111.168 90.711C111.492 85.2734 111.697 45.8768 111.423 41.5747C111.234 38.6013 111.106 37.808 110.676 36.9471C109.448 34.4899 108.377 33.6437 101.531 29.7215C98.824 28.1706 95.4244 26.21 93.9764 25.3645C92.5284 24.5188 90.8801 23.5696 90.3135 23.2549C89.7469 22.9402 88.0471 21.9642 86.5362 21.086C85.0253 20.2077 82.7589 18.8933 81.4998 18.1647C78.1135 16.2055 74.2098 13.9006 69.753 11.2295Z" fill="url(#paint1_linear_1_6)"/>
<path fill-rule="evenodd" clip-rule="evenodd" d="M60.8939 6.62806C62.2851 7 65.3706 8.60264 69.753 11.2295C74.2098 13.9006 78.1135 16.2055 81.4998 18.1647C82.7589 18.8933 85.0253 20.2077 86.5362 21.086C88.0471 21.9642 89.7469 22.9402 90.3135 23.2549C90.8801 23.5696 92.5284 24.5188 93.9764 25.3645C95.4244 26.21 98.824 28.1706 101.531 29.7215C108.377 33.6437 109.448 34.4899 110.676 36.9471C111.106 37.808 111.234 38.6013 111.423 41.5747C111.697 45.8768 111.492 85.2734 111.168 90.711C110.8 96.8682 110.589 97.1356 102.332 101.875C99.8141 103.32 95.1783 105.991 92.0305 107.809C88.8827 109.628 84.556 112.127 82.4155 113.364C78.6526 115.537 71.1339 119.982 69.0232 121.281C67.3247 122.326 62.5907 124.656 61.191 125.137C59.2838 125.791 57.9787 125.936 56.9643 125.608C54.9637 124.961 48.5956 121.575 38.2322 115.648C31.6533 111.886 23.1891 106.98 21.9783 106.228C21.1223 105.696 19.5386 104.766 13.279 101.123C6.84173 97.3757 5.90175 96.1406 5.59109 91.0209C5.33927 86.871 5.35828 44.6436 5.61376 40.9636C5.84818 37.5862 6.28177 36.2507 7.64893 34.6936C8.34373 33.9025 10.8393 32.2299 13.6224 30.6899C14.8428 30.0145 19.8284 27.145 27.1292 22.9159C29.0808 21.7852 32.7894 19.6447 35.3706 18.1588C37.9518 16.6729 41.0423 14.8903 42.2385 14.1977C56.6624 5.84505 57.1798 5.63517 60.8939 6.62806ZM39.9492 19.029C53.3946 11.2108 55.3083 10.1851 57.1436 9.81275C58.3226 9.57356 60.0539 9.72578 61.3488 10.1824C62.625 10.6326 66.01 12.4619 69.9389 14.8244C71.7646 15.9223 74.7006 17.6646 76.4634 18.6964C78.2261 19.7282 79.8229 20.6641 80.0117 20.7765C80.4865 21.0587 91.0459 27.1363 98.0971 31.1857C104.593 34.9163 106.275 36.1023 107.254 37.6459L107.282 37.6912C107.411 37.8943 107.527 38.0761 107.63 38.2646C108.514 39.8775 108.513 41.9761 108.5 62.0354L108.499 62.5583C108.485 84.8896 108.26 92.5213 107.576 93.8422C107.027 94.9044 105.642 96.3258 104.349 97.1555C103.696 97.5746 101.481 98.8808 99.427 100.058C97.3735 101.236 94.1996 103.074 92.3739 104.142C90.5482 105.211 88.5909 106.344 88.0243 106.659C85.3133 108.17 75.0486 114.195 68.2219 118.284C66.1604 119.518 61.9323 121.551 60.3571 122.064C58.6122 122.633 57.1859 122.439 54.7916 121.305C52.937 120.426 46.1438 116.72 39.8347 113.144C36.8266 111.439 14.6159 98.4803 13.5054 97.7819C10.7871 96.0731 9.39956 94.4899 8.77847 92.3899C8.34671 90.9294 8.35014 43.2277 8.78213 40.5855C9.35079 37.1087 10.4018 36.0419 16.9881 32.2562C19.4809 30.8234 23.5808 28.4647 26.099 27.0145C28.6172 25.5645 31.3472 23.9983 32.1656 23.5339C32.984 23.0695 36.4866 21.0422 39.9492 19.029Z" fill="#D4A74C"/>
<path d="M46.1303 33.7428C48.2078 33.9348 51.6848 34.1484 53.8566 34.2175C57.0149 34.318 57.8056 34.4068 57.8056 34.6613C57.8056 35.223 56.9021 45.5857 56.7652 46.5937C56.6679 47.3092 56.5289 47.5664 56.2398 47.5664C55.9298 47.5664 55.7934 47.2282 55.5944 45.9654C54.7575 40.6505 50.0129 37.2841 43.3408 37.2706C36.9285 37.2577 32.1182 40.531 31.5741 45.2776C31.1831 48.6884 33.0374 51.0766 39.0976 54.9667C48.1558 60.7815 56.2192 66.0641 57.125 66.7776C59.4368 68.5981 61.0493 70.8757 62.0777 73.7736C62.6848 75.4843 62.7276 75.8379 62.7276 79.1524C62.7276 81.9132 62.6319 83.0535 62.2959 84.2931C59.7696 93.6131 51.7006 98.6 39.1479 98.5988C32.9133 98.5984 27.3258 97.4343 23.3008 95.2976C21.0298 94.0921 20.3076 93.3524 19.9996 91.9166C19.6386 90.2343 19.8943 85.4389 20.4685 83.1217C21.0912 80.6088 22.2649 78.008 22.7763 78.008C23.108 78.008 23.1905 78.3218 23.3026 80.0107C23.6996 85.9919 26.6896 90.5975 31.8222 93.1335C34.2061 94.3114 36.4361 94.782 39.7203 94.7998C43.6198 94.8209 46.2697 94.093 48.5766 92.3672C49.938 91.3489 50.6003 90.5426 51.5348 88.7655C52.1486 87.5987 52.1969 87.3226 52.1969 84.9889C52.1969 82.7408 52.1323 82.3364 51.5941 81.2124C50.8023 79.5584 49.2556 78.0464 46.5923 76.3229C45.3982 75.5502 40.4533 72.2825 35.6037 69.0611C25.5516 62.3846 24.4308 61.4201 22.7978 58.0434C21.4224 55.1993 21.1035 53.5337 21.2521 49.9697C21.3799 46.9057 21.536 46.0656 22.3794 43.9043C24.0792 39.5491 27.2123 36.5159 31.7863 34.7977C35.5254 33.3933 39.3247 33.1138 46.1303 33.7428Z" fill="url(#paint2_radial_1_6)"/>
<path d="M97.4103 35.0797C97.4103 35.3019 96.9999 35.4521 96.094 35.561C93.7482 35.8435 92.1216 36.9172 91.0832 38.8689C90.6746 39.6368 90.6569 40.7599 90.6569 65.9916V92.3132L91.1555 93.2443C92.1882 95.1733 94.4743 96.5476 96.6507 96.5476C97.2576 96.5476 97.4103 96.6396 97.4103 97.0053C97.4103 97.4581 97.2576 97.4631 83.7891 97.4631C70.6687 97.4631 70.1678 97.4475 70.1678 97.0378C70.1678 96.6867 70.4075 96.5879 71.5471 96.4686C73.7384 96.2397 75.3917 95.1418 76.4263 93.2288L76.9212 92.3132V65.9916V39.6699L76.4162 38.726C75.4467 36.9142 73.4058 35.678 71.3697 35.6695C70.3333 35.6652 70.1678 35.6031 70.1678 35.2193L70.1678 35.2054C70.1677 35.1437 70.1676 35.0887 70.1846 35.0395C70.3193 34.6505 71.5241 34.6321 82.2577 34.6829L84.534 34.694L84.8765 34.6956C95.4862 34.7471 97.4103 34.8062 97.4103 35.0797Z" fill="url(#paint3_radial_1_6)"/>
<defs>
<linearGradient id="paint0_linear_1_6" x1="109.121" y1="0" x2="109.121" y2="132" gradientUnits="userSpaceOnUse">
<stop stop-color="#283D40"/>
<stop offset="1" stop-color="#27524C"/>
</linearGradient>
<linearGradient id="paint1_linear_1_6" x1="109.121" y1="0" x2="109.121" y2="132" gradientUnits="userSpaceOnUse">
<stop stop-color="#283D40"/>
<stop offset="1" stop-color="#27524C"/>
</linearGradient>
<radialGradient id="paint2_radial_1_6" cx="0" cy="0" r="1" gradientUnits="userSpaceOnUse" gradientTransform="translate(58.5 66) rotate(90) scale(66 58.5)">
<stop stop-color="#D4A74C"/>
<stop offset="1" stop-color="#B29251"/>
</radialGradient>
<radialGradient id="paint3_radial_1_6" cx="0" cy="0" r="1" gradientUnits="userSpaceOnUse" gradientTransform="translate(58.5 66) rotate(90) scale(66 58.5)">
<stop stop-color="#F0C869"/>
<stop offset="1" stop-color="#8A733C"/>
</radialGradient>
</defs>
</svg>
